<svg width="174" height="23" viewBox="0 0 174 23" fill="none" xmlns="http://www.w3.org/2000/svg">
<path d="M33.9862 17H36.2002V7.946L40.2142 13.49H40.5382L44.5162 7.892V17H46.7122V4.4H44.6242L40.5202 10.286L36.2182 4.4H33.9862V17ZM48.5908 17H50.8228L52.1368 13.778H57.5188L58.8328 17H61.1908L55.8628 4.364H53.9188L48.5908 17ZM54.8368 7.226L56.6728 11.708H52.9828L54.8368 7.226ZM68.136 13.652C68.136 14.606 67.344 15.128 66.3 15.128C65.328 15.128 64.14 14.66 63.402 13.706L62.142 15.218C62.754 16.496 64.644 17.198 66.264 17.198C68.622 17.198 70.476 15.758 70.476 13.634C70.476 9.44 64.77 10.268 64.77 7.658C64.77 6.83 65.436 6.272 66.534 6.272C67.542 6.272 68.154 6.614 68.766 7.208L69.954 5.552C69.198 4.724 67.902 4.202 66.354 4.202C63.906 4.202 62.43 5.786 62.43 7.676C62.43 11.78 68.136 11.168 68.136 13.652ZM71.4613 6.47H75.5473V17H77.7613V6.47H81.8473V4.4H71.4613V6.47ZM83.7675 17H91.2375V14.93H85.9815V11.672H90.5175V9.602H85.9815V6.47H91.0575V4.4H83.7675V17ZM96.335 17V12.284H97.883L101.357 17H104.039L100.097 11.852C101.141 11.492 102.527 10.412 102.527 8.252C102.527 6.074 101.393 4.364 97.955 4.364C97.595 4.364 94.823 4.4 94.121 4.4V17H96.335ZM97.847 6.434C99.647 6.434 100.187 7.28 100.187 8.27C100.187 9.566 99.053 10.214 97.775 10.214H96.335V6.47C96.929 6.452 97.433 6.434 97.847 6.434ZM111.027 13.652C111.027 14.606 110.235 15.128 109.191 15.128C108.219 15.128 107.031 14.66 106.293 13.706L105.033 15.218C105.645 16.496 107.535 17.198 109.155 17.198C111.513 17.198 113.367 15.758 113.367 13.634C113.367 9.44 107.661 10.268 107.661 7.658C107.661 6.83 108.327 6.272 109.425 6.272C110.433 6.272 111.045 6.614 111.657 7.208L112.845 5.552C112.089 4.724 110.793 4.202 109.245 4.202C106.797 4.202 105.321 5.786 105.321 7.676C105.321 11.78 111.027 11.168 111.027 13.652ZM125.404 4.4H123.01L119.914 9.674L116.782 4.4H114.262L118.708 11.744V17H120.922V11.744L125.404 4.4ZM132.296 13.652C132.296 14.606 131.504 15.128 130.46 15.128C129.488 15.128 128.3 14.66 127.562 13.706L126.302 15.218C126.914 16.496 128.804 17.198 130.424 17.198C132.782 17.198 134.636 15.758 134.636 13.634C134.636 9.44 128.93 10.268 128.93 7.658C128.93 6.83 129.596 6.272 130.694 6.272C131.702 6.272 132.314 6.614 132.926 7.208L134.114 5.552C133.358 4.724 132.062 4.202 130.514 4.202C128.066 4.202 126.59 5.786 126.59 7.676C126.59 11.78 132.296 11.168 132.296 13.652ZM135.621 6.47H139.707V17H141.921V6.47H146.007V4.4H135.621V6.47ZM147.928 17H155.398V14.93H150.142V11.672H154.678V9.602H150.142V6.47H155.218V4.4H147.928V17ZM158.281 17H160.495V7.946L164.509 13.49H164.833L168.811 7.892V17H171.007V4.4H168.919L164.815 10.286L160.513 4.4H158.281V17Z" fill="white"/>
<path d="M12.5 21.5C11.837 21.5 11.2011 21.2366 10.7322 20.7678C10.2634 20.2989 10 19.663 10 19V16.54L6.8 13.34H2.5C1.83696 13.34 1.20107 13.0766 0.732233 12.6078C0.263392 12.1389 0 11.503 0 10.84C0 10.177 0.263392 9.54107 0.732233 9.07223C1.20107 8.60339 1.83696 8.34 2.5 8.34H5.33V3C5.33 2.6717 5.39466 2.34661 5.5203 2.04329C5.64594 1.73998 5.83009 1.46438 6.06223 1.23223C6.29438 1.00009 6.56998 0.815938 6.87329 0.690301C7.17661 0.564664 7.5017 0.5 7.83 0.5C8.1583 0.5 8.48339 0.564664 8.78671 0.690301C9.09002 0.815938 9.36562 1.00009 9.59777 1.23223C9.82991 1.46438 10.0141 1.73998 10.1397 2.04329C10.2653 2.34661 10.33 2.6717 10.33 3V9.8L12.5 12L14.67 9.8V3C14.67 2.33696 14.9334 1.70107 15.4022 1.23223C15.8711 0.763392 16.507 0.5 17.17 0.5C17.833 0.5 18.4689 0.763392 18.9378 1.23223C19.4066 1.70107 19.67 2.33696 19.67 3V8.33H22.5C23.163 8.33 23.7989 8.59339 24.2678 9.06223C24.7366 9.53107 25 10.167 25 10.83C25 11.493 24.7366 12.1289 24.2678 12.5978C23.7989 13.0666 23.163 13.33 22.5 13.33H18.2L15 16.53V19C15 19.663 14.7366 20.2989 14.2678 20.7678C13.7989 21.2366 13.163 21.5 12.5 21.5Z" fill="#FF6100"/>
</svg>
